<!DOCTYPE svg PUBLIC "-//W3C//DTD SVG 20010904//EN" "http://www.w3.org/TR/2001/REC-SVG-20010904/DTD/svg10.dtd">
<svg version="1.0" xmlns="http://www.w3.org/2000/svg" width="192px" height="192px" viewBox="0 0 1920 1920" preserveAspectRatio="xMidYMid meet">
<g id="layer101" fill="#fdfdfd" stroke="none">
 <path d="M25 1708 c-3 -7 -4 -389 -3 -848 l3 -835 930 0 930 0 0 845 0 845 -928 3 c-737 2 -929 0 -932 -10z m1132 -415 c-44 -5 -50 -16 -67 -115 -6 -35 -12 -67 -13 -73 -1 -6 78 -12 213 -15 118 -3 221 -9 228 -13 9 -6 12 -104 12 -432 0 -372 -2 -425 -16 -439 -14 -14 -78 -16 -553 -16 -419 0 -541 3 -549 13 -6 7 -11 169 -13 434 -3 336 -1 425 9 435 10 10 67 14 223 16 156 2 211 6 215 16 2 6 -3 50 -13 97 l-18 84 -40 6 c-22 3 64 6 190 6 127 0 213 -2 192 -4z"/>
 </g>
<g id="layer102" fill="#dae9e9" stroke="none">
 <path d="M722 1308 c-19 -19 5 -38 49 -38 21 0 41 5 44 10 4 6 65 10 151 10 139 0 145 -1 139 -19 -7 -23 11 -37 22 -17 4 8 24 16 43 18 27 2 35 7 35 23 0 19 -8 20 -235 23 -172 2 -239 -1 -248 -10z"/>
 <path d="M806 1251 c-4 -5 -2 -12 3 -15 5 -4 12 -2 15 3 4 5 2 12 -3 15 -5 4 -12 2 -15 -3z"/>
 <path d="M1096 1221 c-4 -5 -2 -12 3 -15 5 -4 12 -2 15 3 4 5 2 12 -3 15 -5 4 -12 2 -15 -3z"/>
 <path d="M815 1210 c-4 -6 -3 -16 3 -22 6 -6 12 -6 17 2 4 6 3 16 -3 22 -6 6 -12 6 -17 -2z"/>
 <path d="M1088 1175 c-3 -23 -5 -31 -13 -47 -4 -10 -4 -25 -1 -33 5 -14 35 -16 213 -15 198 2 209 1 230 -20 14 -13 24 -17 28 -10 9 15 -25 52 -42 46 -7 -3 -15 -1 -18 4 -4 6 -85 10 -195 10 -150 0 -189 3 -193 14 -3 7 0 19 6 25 8 8 8 14 -1 23 -7 7 -13 8 -14 3z"/>
 <path d="M825 1160 c-4 -6 -2 -17 4 -24 6 -7 8 -16 4 -19 -3 -4 -93 -7 -199 -7 -120 0 -195 -4 -199 -10 -4 -6 -10 -8 -14 -5 -5 2 -17 -5 -27 -16 -18 -20 -19 -41 -16 -443 4 -410 5 -422 25 -443 l20 -23 539 0 539 0 25 25 24 24 -2 348 -3 348 -40 0 -40 0 -3 -327 -2 -327 -495 -1 -495 0 -2 328 -3 327 -32 3 -33 3 0 68 c0 48 4 72 14 81 11 8 75 11 226 10 184 -1 211 1 217 15 3 9 1 21 -5 27 -6 6 -8 16 -6 23 7 16 -12 29 -21 15z"/>
 </g>
<g id="layer103" fill="#c9d6e1" stroke="none">
 <path d="M727 1304 c-13 -14 6 -24 44 -24 27 0 39 -4 37 -12 -2 -7 2 -14 7 -14 6 -1 9 1 8 6 -1 4 81 9 182 12 180 6 211 10 200 29 -7 10 -468 13 -478 3z"/>
 <path d="M1086 1181 c-4 -5 -2 -12 3 -15 5 -4 12 -2 15 3 4 5 2 12 -3 15 -5 4 -12 2 -15 -3z"/>
 <path d="M635 1102 c-200 -2 -210 -3 -232 -24 -21 -20 -23 -30 -21 -96 l3 -75 445 2 c411 1 445 3 451 19 10 25 51 59 79 64 44 9 74 -6 96 -47 18 -35 25 -40 55 -40 l34 0 3 71 c2 58 -1 75 -17 95 l-19 24 -334 5 c-183 3 -427 4 -543 2z m355 -97 c0 -18 -5 -25 -19 -25 -11 0 -23 5 -26 10 -11 18 3 40 25 40 15 0 20 -7 20 -25z"/>
 </g>
<g id="layer104" fill="#cad2db" stroke="none">
 <path d="M1096 1291 c-3 -5 1 -14 8 -20 16 -13 32 2 21 19 -8 12 -22 13 -29 1z"/>
 <path d="M806 1271 c-4 -5 -2 -12 3 -15 5 -4 12 -2 15 3 4 5 2 12 -3 15 -5 4 -12 2 -15 -3z"/>
 <path d="M1095 1240 c-4 -6 -3 -16 3 -22 6 -6 12 -6 17 2 4 6 3 16 -3 22 -6 6 -12 6 -17 -2z"/>
 <path d="M815 1230 c-4 -6 -3 -16 3 -22 6 -6 12 -6 17 2 4 6 3 16 -3 22 -6 6 -12 6 -17 -2z"/>
 <path d="M1086 1191 c-4 -5 -2 -12 3 -15 5 -4 12 -2 15 3 4 5 2 12 -3 15 -5 4 -12 2 -15 -3z"/>
 <path d="M825 1180 c-4 -6 -3 -16 3 -22 6 -6 12 -6 17 2 4 6 3 16 -3 22 -6 6 -12 6 -17 -2z"/>
 <path d="M1075 1150 c-4 -6 -3 -16 3 -22 6 -6 12 -6 17 2 4 6 3 16 -3 22 -6 6 -12 6 -17 -2z"/>
 <path d="M836 1131 c-4 -5 -2 -12 3 -15 5 -4 12 -2 15 3 4 5 2 12 -3 15 -5 4 -12 2 -15 -3z"/>
 <path d="M1055 1101 c-7 -12 12 -24 25 -16 11 7 4 25 -10 25 -5 0 -11 -4 -15 -9z"/>
 <path d="M956 1051 c-3 -5 5 -16 19 -25 24 -16 45 -6 22 11 -24 19 -36 23 -41 14z"/>
 <path d="M916 1011 c-4 -5 -2 -12 3 -15 5 -4 12 -2 15 3 4 5 2 12 -3 15 -5 4 -12 2 -15 -3z"/>
 <path d="M1365 1010 c-3 -5 -11 -7 -18 -4 -17 6 -91 -71 -82 -85 4 -7 22 5 49 32 24 25 51 43 62 42 35 -3 64 -25 79 -61 8 -20 19 -33 24 -29 24 14 -40 111 -66 101 -7 -3 -15 -1 -18 4 -4 6 -10 10 -15 10 -5 0 -11 -4 -15 -10z"/>
 <path d="M971 981 c-14 -11 -19 -21 -13 -25 5 -3 20 2 33 12 29 24 11 36 -20 13z"/>
 </g>
<g id="layer105" fill="#afd8e2" stroke="none">
 <path d="M455 920 c-3 -5 -4 -13 -2 -17 8 -12 807 0 810 12 3 14 -799 19 -808 5z"/>
 </g>
<g id="layer106" fill="#aab3ba" stroke="none">
 <path d="M808 1285 c-7 -7 31 -177 44 -192 14 -18 198 -18 220 0 17 13 53 170 43 187 -6 10 -297 15 -307 5z"/>
 <path d="M934 1029 c-19 -22 -13 -43 19 -63 12 -8 21 -5 36 8 26 23 26 38 3 59 -24 22 -35 21 -58 -4z"/>
 <path d="M1454 906 c-4 -10 -2 -22 4 -28 8 -8 13 -7 18 6 4 10 2 22 -4 28 -8 8 -13 7 -18 -6z"/>
 <path d="M1875 50 c-4 -6 -3 -16 3 -22 6 -6 12 -6 17 2 4 6 3 16 -3 22 -6 6 -12 6 -17 -2z"/>
 </g>
<g id="layer107" fill="#01ece8" stroke="none">
 <path d="M995 794 c-77 -28 -104 -45 -135 -82 -37 -45 -47 -79 -44 -155 3 -83 44 -142 124 -179 75 -35 162 -37 198 -5 10 10 23 17 28 17 12 0 64 53 64 65 0 5 7 17 17 27 18 21 26 130 11 163 -34 76 -105 142 -162 150 -11 2 -30 6 -41 9 -11 3 -38 -2 -60 -10z"/>
 </g>
<g id="layer108" fill="#00dfe0" stroke="none">
 <path d="M24 1877 c-3 -8 -4 -49 -2 -93 l3 -79 930 0 930 0 0 90 0 90 -928 3 c-769 2 -928 0 -933 -11z"/>
 <path d="M461 906 c-8 -9 -11 -107 -9 -337 l3 -324 510 0 510 0 3 304 c1 169 -2 309 -7 314 -11 11 -141 -92 -141 -113 0 -9 -5 -21 -12 -28 -9 -9 -9 -21 0 -50 7 -22 12 -70 12 -108 0 -124 -67 -219 -184 -263 -221 -82 -442 102 -395 329 21 101 68 164 159 211 37 19 61 23 130 23 51 0 94 -5 108 -13 20 -11 26 -10 41 3 10 9 25 16 33 16 20 0 42 26 33 40 -4 7 -136 10 -394 10 -317 0 -391 -3 -400 -14z"/>
 <path d="M936 779 c-25 -14 -35 -24 -28 -31 6 -6 16 -6 28 1 11 6 32 15 47 21 16 5 25 14 22 20 -9 14 -25 12 -69 -11z"/>
 <path d="M1075 791 c-7 -12 12 -24 25 -16 11 7 4 25 -10 25 -5 0 -11 -4 -15 -9z"/>
 <path d="M1166 752 c-3 -5 5 -19 18 -31 13 -13 26 -18 30 -13 3 5 -5 19 -18 31 -13 13 -26 18 -30 13z"/>
 <path d="M1216 692 c-3 -6 1 -15 8 -21 8 -7 17 -8 20 -3 3 6 -1 15 -8 21 -8 7 -17 8 -20 3z"/>
 <path d="M1245 610 c-4 -6 -3 -16 3 -22 6 -6 12 -6 17 2 4 6 3 16 -3 22 -6 6 -12 6 -17 -2z"/>
 <path d="M814 597 c-7 -20 -2 -47 11 -50 14 -3 19 43 6 56 -7 7 -12 6 -17 -6z"/>
 <path d="M1245 560 c-4 -6 -3 -16 3 -22 6 -6 12 -6 17 2 4 6 3 16 -3 22 -6 6 -12 6 -17 -2z"/>
 <path d="M1220 474 c-9 -10 -10 -18 -3 -25 8 -8 14 -5 22 9 13 25 -2 38 -19 16z"/>
 <path d="M905 400 c-7 -11 62 -45 92 -45 26 0 31 20 5 20 -9 0 -31 8 -49 18 -37 20 -40 20 -48 7z"/>
 <path d="M1141 396 c-7 -8 -8 -17 -3 -20 6 -3 15 1 21 8 7 8 8 17 3 20 -6 3 -15 -1 -21 -8z"/>
 <path d="M1065 371 c-7 -12 12 -24 25 -16 11 7 4 25 -10 25 -5 0 -11 -4 -15 -9z"/>
 </g>
<g id="layer109" fill="#ef6d64" stroke="none">
 <path d="M1326 989 c-31 -24 -25 -46 7 -24 33 23 75 19 102 -10 16 -19 25 -22 31 -14 11 19 -51 69 -85 69 -15 0 -40 -9 -55 -21z"/>
 <path d="M1261 916 c-7 -8 -8 -17 -3 -20 6 -3 15 1 21 8 7 8 8 17 3 20 -6 3 -15 -1 -21 -8z"/>
 <path d="M1427 865 c-30 -38 -21 -57 10 -22 28 31 35 45 25 51 -4 2 -20 -10 -35 -29z"/>
 <path d="M1236 881 c-4 -5 -2 -12 3 -15 5 -4 12 -2 15 3 4 5 2 12 -3 15 -5 4 -12 2 -15 -3z"/>
 <path d="M1356 801 c-4 -5 -2 -12 3 -15 5 -4 12 -2 15 3 4 5 2 12 -3 15 -5 4 -12 2 -15 -3z"/>
 <path d="M1315 781 c-7 -12 12 -24 25 -16 11 7 4 25 -10 25 -5 0 -11 -4 -15 -9z"/>
 </g>
<g id="layer110" fill="#ff5e54" stroke="none">
 <path d="M1324 980 c-17 -11 -45 -43 -63 -71 l-34 -51 44 -44 c24 -24 51 -44 60 -44 22 0 116 84 135 122 14 27 13 31 -6 58 -39 54 -83 64 -136 30z"/>
 </g>
<g id="layer111" fill="#979087" stroke="none">
 <path d="M1875 1709 c-10 -27 0 -1659 10 -1662 14 -3 19 1653 5 1667 -6 6 -11 4 -15 -5z"/>
 <path d="M1243 897 c-19 -24 -23 -36 -14 -41 5 -3 16 5 25 19 16 24 6 45 -11 22z"/>
 <path d="M1446 881 c-4 -5 -2 -12 3 -15 5 -4 12 -2 15 3 4 5 2 12 -3 15 -5 4 -12 2 -15 -3z"/>
 <path d="M1366 805 c-21 -18 -34 -35 -29 -38 6 -4 27 8 48 27 21 18 34 35 29 38 -5 3 -26 -9 -48 -27z"/>
 </g>
<g id="layer112" fill="#25baba" stroke="none">
 <path d="M1246 911 c-4 -5 -2 -12 3 -15 5 -4 12 -2 15 3 4 5 2 12 -3 15 -5 4 -12 2 -15 -3z"/>
 <path d="M1215 881 c-7 -12 12 -24 25 -16 11 7 4 25 -10 25 -5 0 -11 -4 -15 -9z"/>
 <path d="M1426 851 c-48 -49 -34 -60 18 -15 26 23 36 38 30 44 -7 7 -23 -3 -48 -29z"/>
 <path d="M1356 791 c-4 -5 -2 -12 3 -15 5 -4 12 -2 15 3 4 5 2 12 -3 15 -5 4 -12 2 -15 -3z"/>
 </g>
<g id="layer113" fill="#098c97" stroke="none">
 <path d="M27 1894 c-4 -4 -4 -11 -1 -15 3 -5 419 -9 924 -9 l919 0 3 -80 c2 -45 7 -80 13 -80 15 0 18 159 4 176 -10 12 -154 14 -934 14 -507 0 -925 -3 -928 -6z"/>
 <path d="M985 879 c-3 -4 -12 -6 -20 -3 -17 7 -57 -14 -50 -26 5 -8 14 -7 55 7 22 8 122 7 145 -2 11 -3 31 -11 44 -16 21 -9 28 -7 42 13 22 28 13 45 -11 23 -15 -13 -23 -14 -40 -5 -12 6 -28 9 -35 6 -8 -3 -17 -1 -20 3 -2 5 -27 9 -55 9 -28 0 -53 -4 -55 -9z"/>
 <path d="M854 827 c-36 -31 -18 -42 20 -12 16 13 24 25 18 29 -6 3 -23 -4 -38 -17z"/>
 <path d="M995 800 c-8 -12 20 -24 35 -15 6 3 8 11 5 16 -8 12 -32 12 -40 -1z"/>
 <path d="M936 781 c-4 -5 -2 -12 3 -15 5 -4 12 -2 15 3 4 5 2 12 -3 15 -5 4 -12 2 -15 -3z"/>
 <path d="M788 762 c-24 -27 -39 -60 -30 -66 5 -3 21 12 35 34 26 40 22 64 -5 32z"/>
 <path d="M1147 774 c-3 -3 11 -22 32 -43 20 -20 44 -47 52 -60 10 -16 18 -21 22 -14 13 21 -89 134 -106 117z"/>
 <path d="M1305 720 c-4 -6 -3 -16 3 -22 6 -6 12 -6 17 2 4 6 3 16 -3 22 -6 6 -12 6 -17 -2z"/>
 <path d="M724 597 c-7 -20 -2 -47 11 -50 14 -3 19 43 6 56 -7 7 -12 6 -17 -6z"/>
 <path d="M746 471 c-4 -5 -2 -12 3 -15 5 -4 12 -2 15 3 4 5 2 12 -3 15 -5 4 -12 2 -15 -3z"/>
 <path d="M1287 420 c-26 -40 -22 -64 5 -32 24 27 39 60 30 66 -5 3 -21 -12 -35 -34z"/>
 <path d="M1168 411 c-26 -19 -44 -39 -42 -43 7 -10 58 19 85 48 34 36 7 33 -43 -5z"/>
 <path d="M766 431 c-4 -5 -2 -12 3 -15 5 -4 12 -2 15 3 4 5 2 12 -3 15 -5 4 -12 2 -15 -3z"/>
 <path d="M995 360 c-8 -13 6 -18 50 -16 22 0 40 6 40 11 0 12 -83 17 -90 5z"/>
 <path d="M905 301 c-7 -12 12 -24 25 -16 11 7 4 25 -10 25 -5 0 -11 -4 -15 -9z"/>
 <path d="M975 280 c-8 -12 20 -24 35 -15 6 3 8 11 5 16 -8 12 -32 12 -40 -1z"/>
 <path d="M1065 280 c-8 -12 20 -24 35 -15 6 3 8 11 5 16 -8 12 -32 12 -40 -1z"/>
 </g>
<g id="layer114" fill="#475c6a" stroke="none">
 <path d="M20 871 l0 -851 936 0 c621 0 933 3 929 10 -4 7 -323 10 -926 10 l-919 0 0 834 c0 546 -3 837 -10 841 -7 4 -10 -280 -10 -844z"/>
 <path d="M1226 862 c-8 -13 102 -118 113 -107 5 6 -14 31 -49 63 -32 29 -61 49 -64 44z"/>
 </g>
<g id="layer115" fill="#225769" stroke="none">
 <path d="M1876 1891 c-4 -5 -2 -12 3 -15 5 -4 12 -2 15 3 4 5 2 12 -3 15 -5 4 -12 2 -15 -3z"/>
 <path d="M20 1874 c0 -8 5 -12 10 -9 6 4 8 11 5 16 -9 14 -15 11 -15 -7z"/>
 <path d="M1195 869 c-14 -14 -22 -16 -37 -8 -11 6 -22 8 -25 5 -4 -3 -12 -1 -19 5 -8 7 -14 7 -19 -1 -3 -5 -4 -11 -1 -11 57 -13 111 -46 160 -99 51 -55 55 -58 75 -44 11 8 21 19 21 23 0 5 -31 40 -69 79 -67 68 -70 70 -86 51z"/>
 <path d="M967 873 c-4 -3 -18 -8 -32 -9 -29 -3 -87 -42 -80 -54 3 -4 30 5 60 21 30 16 57 29 60 29 6 0 8 10 3 16 -3 2 -8 1 -11 -3z"/>
 <path d="M951 794 c-44 -19 -62 -34 -55 -45 3 -5 17 -3 32 6 15 8 40 19 55 25 16 5 25 14 22 20 -8 13 -13 12 -54 -6z"/>
 <path d="M1075 801 c-7 -12 12 -24 25 -16 11 7 4 25 -10 25 -5 0 -11 -4 -15 -9z"/>
 <path d="M1156 771 c-4 -5 -2 -12 3 -15 5 -4 12 -2 15 3 4 5 2 12 -3 15 -5 4 -12 2 -15 -3z"/>
 <path d="M765 719 c-15 -22 -24 -47 -21 -54 2 -7 0 -17 -6 -23 -12 -12 -1 -35 13 -26 6 3 8 11 6 17 -2 7 9 36 24 65 32 63 20 80 -16 21z"/>
 <path d="M850 714 c-9 -10 -10 -18 -3 -25 8 -8 14 -5 22 9 13 25 -2 38 -19 16z"/>
 <path d="M1217 714 c-3 -3 1 -18 8 -32 7 -15 18 -40 25 -56 8 -20 14 -26 21 -19 8 8 5 24 -9 56 -20 44 -34 61 -45 51z"/>
 <path d="M1315 680 c-4 -6 -3 -16 3 -22 6 -6 12 -6 17 2 4 6 3 16 -3 22 -6 6 -12 6 -17 -2z"/>
 <path d="M812 628 c-22 -22 -7 -148 16 -134 8 5 7 134 -1 142 -2 2 -9 -2 -15 -8z"/>
 <path d="M1325 630 c-4 -6 -3 -16 3 -22 6 -6 12 -6 17 2 4 6 3 16 -3 22 -6 6 -12 6 -17 -2z"/>
 <path d="M1254 544 c-4 -10 -15 -38 -25 -61 -19 -47 -9 -68 15 -30 27 40 40 87 28 99 -8 8 -13 6 -18 -8z"/>
 <path d="M1326 543 c-3 -3 -6 -16 -6 -28 0 -12 -11 -43 -24 -68 -13 -26 -20 -50 -15 -53 12 -7 60 73 66 111 5 31 -7 52 -21 38z"/>
 <path d="M734 526 c-10 -26 29 -112 46 -101 7 4 -21 99 -33 112 -4 3 -9 -2 -13 -11z"/>
 <path d="M845 461 c-4 -8 -1 -19 8 -28 19 -20 30 -1 13 22 -10 14 -15 15 -21 6z"/>
 <path d="M885 411 c-11 -19 71 -69 87 -53 6 6 -7 19 -36 35 -25 14 -48 22 -51 18z"/>
 <path d="M1161 396 c-7 -8 -8 -17 -3 -20 6 -3 15 1 21 8 7 8 8 17 3 20 -6 3 -15 -1 -21 -8z"/>
 <path d="M806 382 c-3 -5 3 -17 13 -26 11 -10 22 -13 25 -8 3 5 -3 17 -13 26 -11 10 -22 13 -25 8z"/>
 <path d="M1091 369 c-16 -6 -21 -13 -14 -20 13 -13 67 7 58 21 -7 12 -12 12 -44 -1z"/>
 <path d="M855 330 c-8 -14 55 -44 67 -32 7 7 0 16 -20 26 -36 19 -39 19 -47 6z"/>
 <path d="M1165 317 c-23 -13 -46 -22 -52 -20 -15 5 -26 -14 -13 -22 6 -4 17 -2 24 4 7 6 15 8 18 5 10 -9 89 36 83 46 -9 14 -15 13 -60 -13z"/>
 <path d="M955 291 c-7 -12 12 -24 25 -16 11 7 4 25 -10 25 -5 0 -11 -4 -15 -9z"/>
 </g>
<g id="layer116" fill="#1f4a5e" stroke="none">
 <path d="M13 1913 c-10 -4 -13 -205 -13 -959 l0 -954 954 0 c861 0 954 2 960 16 3 9 6 435 6 948 0 712 -3 935 -12 944 -9 9 -232 12 -947 11 -515 0 -942 -3 -948 -6z m1867 -958 l0 -925 -925 0 -925 0 0 798 c0 438 3 854 7 925 l6 127 919 0 918 0 0 -925z"/>
 <path d="M981 874 c-116 -31 -175 -79 -228 -190 -25 -52 -25 -161 0 -218 9 -21 17 -42 17 -47 0 -18 80 -91 127 -115 98 -51 176 -51 285 0 66 31 95 62 135 143 22 46 28 73 29 130 1 40 -2 76 -7 79 -5 3 -9 14 -9 24 0 11 -30 51 -66 89 -49 53 -79 75 -117 89 -78 29 -107 31 -166 16z m134 -101 c11 -7 27 -13 35 -13 18 0 71 -53 90 -89 18 -34 19 -140 3 -181 -19 -47 -59 -88 -111 -111 -35 -16 -57 -19 -108 -15 -72 6 -97 17 -134 56 -55 58 -89 174 -62 206 5 5 15 24 22 42 16 41 64 90 105 108 37 17 133 15 160 -3z"/>
 </g>

</svg>